<svg width="518" height="269" xmlns="http://www.w3.org/2000/svg" xmlns:xlink="http://www.w3.org/1999/xlink" xml:space="preserve" overflow="hidden"><g transform="translate(-1407 -823)"><path d="M1414 865.668C1414 845.969 1429.97 830 1449.67 830L1708 830 1708 830 1834 830 1882.33 830C1902.03 830 1918 845.969 1918 865.668L1918 954.834 1918 954.834 1918 1008.33 1918 1008.33C1918 1028.03 1902.03 1044 1882.33 1044L1834 1044 1772.35 1083.03 1708 1044 1449.67 1044C1429.97 1044 1414 1028.03 1414 1008.33L1414 1008.33 1414 954.834 1414 954.834Z" stroke="#104862" stroke-width="13.75" stroke-miterlimit="8" fill="#E7F7FD" fill-rule="evenodd"/><text fill="#104862" font-family="HGSoeiKakugothicUB,HGSoeiKakugothicUB_MSFontService,sans-serif" font-weight="400" font-size="92" transform="matrix(1 0 0 1 1482.37 977)">かんたん</text></g></svg>